<svg xmlns="http://www.w3.org/2000/svg" width="32" height="32" viewBox="0 0 32 32"><g transform="translate(4771.754 644.764)"><path fill="#d7edf2" d="m 2931.3536,3807.5305 a 13.000063,13.000063 0 0 1 -13.0001,13.0001 13.000063,13.000063 0 0 1 -13,-13.0001 13.000063,13.000063 0 0 1 13,-13 13.000063,13.000063 0 0 1 13.0001,13 z" transform="rotate(134.998)"/><path fill="#586597" style="line-height:normal;font-variant-ligatures:normal;font-variant-position:normal;font-variant-caps:normal;font-variant-numeric:normal;font-variant-alternates:normal;font-feature-settings:normal;text-indent:0;text-align:start;text-decoration-line:none;text-decoration-style:solid;text-decoration-color:#000;text-transform:none;text-orientation:mixed;shape-padding:0;isolation:auto;mix-blend-mode:normal" d="m -4745.5059,-630.26562 c -0.8225,-3e-5 -1.4999,0.67749 -1.5,1.5 0,0.82255 0.6775,1.50002 1.5,1.5 0.8226,2e-5 1.5001,-0.67745 1.5,-1.5 0,-0.82251 -0.6775,-1.50003 -1.5,-1.5 z" color="#000" font-family="sans-serif" font-weight="400" overflow="visible"/><path fill="#b0dae4" style="line-height:normal;font-variant-ligatures:normal;font-variant-position:normal;font-variant-caps:normal;font-variant-numeric:normal;font-variant-alternates:normal;font-feature-settings:normal;text-indent:0;text-align:start;text-decoration-line:none;text-decoration-style:solid;text-decoration-color:#000;text-transform:none;text-orientation:mixed;shape-padding:0;isolation:auto;mix-blend-mode:normal" d="m -4745.5059,-629.26562 c 0.2821,-10e-6 0.5,0.21789 0.5,0.5 1e-4,0.28212 -0.2179,0.5 -0.5,0.5 -0.282,0 -0.5,-0.21788 -0.5,-0.5 1e-4,-0.28211 0.218,-0.50001 0.5,-0.5 z" color="#000" font-family="sans-serif" font-weight="400" overflow="visible"/><path fill="#586597" style="line-height:normal;font-variant-ligatures:normal;font-variant-position:normal;font-variant-caps:normal;font-variant-numeric:normal;font-variant-alternates:normal;font-feature-settings:normal;text-indent:0;text-align:start;text-decoration-line:none;text-decoration-style:solid;text-decoration-color:#000;text-transform:none;text-orientation:mixed;shape-padding:0;isolation:auto;mix-blend-mode:normal" d="m -4747.2918,-618.24276 c 1.2578,-1.01042 2.3514,-2.26374 3.2053,-3.7304 3.4155,-5.86678 1.939,-13.36619 -3.4457,-17.50008 -5.3846,-4.13389 -13.0126,-3.62391 -17.7972,1.19194 a 0.50003259,0.50006735 0 1 0 0.7085,0.70571 c 4.4354,-4.4644 11.4866,-4.93719 16.4783,-1.10496 4.9918,3.8323 6.3579,10.766 3.1916,16.20469 -3.1664,5.43876 -9.8696,7.67563 -15.6663,5.22613 -5.7968,-2.4495 -8.8684,-8.81588 -7.1758,-14.87741 a 0.50003259,0.50006735 0 1 0 -0.9626,-0.26927 c -1.8259,6.53856 1.4959,13.42425 7.7489,16.06652 4.6898,1.98173 9.9412,1.11854 13.715,-1.91287 z" color="#000" font-family="sans-serif" font-weight="400" overflow="visible"/><path fill="#91a6b8" style="line-height:normal;font-variant-ligatures:normal;font-variant-position:normal;font-variant-caps:normal;font-variant-numeric:normal;font-variant-alternates:normal;font-feature-settings:normal;text-indent:0;text-align:start;text-decoration-line:none;text-decoration-style:solid;text-decoration-color:#000;text-transform:none;text-orientation:mixed;shape-padding:0;isolation:auto;mix-blend-mode:normal" d="M-4750.4702-622.7723c-1.3742 1.213-3.0631 1.8749-4.7853 1.9818v-.9944c1.4646-.1044 2.8985-.6703 4.0782-1.6946zM-4749.7631-623.4795l-.7071-.7071c1.0242-1.1799 1.59-2.6138 1.6945-4.0785h.9943c-.1069 1.7223-.7687 3.4114-1.9817 4.7856zM-4751.8844-624.1866c-.9794.8293-2.1613 1.296-3.3711 1.3963v-1.0193c.9511-.096 1.8819-.4426 2.664-1.0841zM-4751.1773-624.8937l-.7071-.7072c.6415-.7822.9884-1.713 1.0841-2.6642h1.0192c-.1002 1.2099-.5669 2.3918-1.3962 3.3714zM-4756.2553-620.7905c-1.7222-.1069-3.4112-.7688-4.7853-1.9818l.7071-.7072c1.1797 1.0243 2.6136 1.5902 4.0782 1.6946zM-4747.7814-629.265h-.9943c-.1045-1.4647-.6703-2.8987-1.6945-4.0785l.7071-.7071c1.213 1.3743 1.8748 3.0633 1.9817 4.7856zM-4753.3165-625.6189c-.5785.4482-1.2456.7171-1.939.8039v-.9945c.4359-.074.8558-.2483 1.2319-.5165zM-4752.6094-626.326l-.7071-.7071c.2682-.3761.4426-.796.5165-1.232h.9943c-.087.6935-.3557 1.3606-.8037 1.9391zM-4756.2554-622.7903c-1.2098-.1003-2.3916-.567-3.371-1.3963l.7071-.7071c.7821.6415 1.7129.9884 2.664 1.0841zM-4749.7811-629.265h-1.0192c-.096-.9511-.4426-1.882-1.0841-2.6642l.7071-.7071c.8293.9795 1.296 2.1613 1.3962 3.3713zM-4756.2554-624.815c-.6933-.087-1.3605-.3557-1.9389-.8039l.7071-.7071c.3761.2682.7959.4426 1.2319.5165zM-4751.8057-629.265h-.9943c-.074-.436-.2483-.8558-.5165-1.232l.7071-.7071c.448.5784.7169 1.2457.8037 1.9391zM-4754.7459-627.0483c-.1616.094-.3321.1631-.5096.2085v-.7181zM-4754.0388-627.7554l-.5096-.5097h.7181c-.045.1775-.114.348-.2085.5097zM-4756.2553-626.8398c-.1771-.045-.3484-.1144-.5096-.2085l.5096-.5096zM-4753.8303-629.265h-.7181l.5096-.5096c.094.1612.1632.3325.2085.5096zM-4761.7477-623.4795c-1.2133-1.3746-1.8737-3.0643-1.9804-4.787h.9944c.1042 1.4651.6686 2.8997 1.6931 4.0799zM-4760.3335-624.8937c-.8296-.98-1.2949-2.1624-1.3949-3.3728h1.0179c.096.9512.4426 1.882 1.0841 2.6642zM-4758.9014-626.326c-.4481-.5785-.717-1.2456-.8038-1.9391h.9958c.074.4365.2466.8569.5151 1.2334zM-4757.472-627.7554c-.095-.1617-.1631-.3322-.2086-.5097h.7182zM-4755.2555-629.9721v-.7183c.1775.045.348.1141.5096.2086zM-4754.0236-631.2041c-.3764-.2685-.7969-.4414-1.2333-.5152v-.9957c.6934.087 1.3606.3557 1.939.8038zM-4752.5915-632.6363c-.7822-.6416-1.7129-.9885-2.664-1.0842v-1.0179c1.2103.1 2.3927.5653 3.3725 1.3949zM-4751.1773-634.0506c-1.1801-1.0246-2.6146-1.5891-4.0796-1.6933v-.9944c1.7226.1067 3.4122.7671 4.7867 1.9806zM-4756.9638-629.2664h-.7154c.045-.1769.113-.3472.2072-.5082zM-4756.2567-629.9735l-.5082-.5083c.161-.094.3313-.1618.5082-.2072zM-4758.7094-629.2664h-.9944c.087-.6929.3546-1.3597.8024-1.9377l.7071.7071c-.2679.3757-.4411.7952-.5151 1.2306zM-4756.2567-631.7193c-.4354.074-.8549.2472-1.2305.5152l-.7071-.7071c.578-.4478 1.2447-.7154 1.9376-.8024zM-4760.7092-629.2664h-1.0192c.1005-1.2094.5659-2.3908 1.3949-3.3699l.7071.7071c-.6412.7818-.9868 1.7122-1.0828 2.6628zM-4756.2567-633.7192c-.9506.096-1.8809.4416-2.6626 1.0829l-.7071-.7072c.979-.829 2.1604-1.2944 3.3697-1.3949zM-4762.7337-629.2664h-.9944c.1072-1.7218.7677-3.4103 1.9804-4.7842l.7071.7071c-1.0239 1.1794-1.5884 2.6129-1.6931 4.0771zM-4756.2567-635.7439c-1.4641.1047-2.8975.6694-4.0768 1.6933l-.7071-.7071c1.3738-1.2128 3.0622-1.8734 4.7839-1.9806z" color="#000" font-family="sans-serif" font-weight="400" overflow="visible"/><path fill="#586597" style="line-height:normal;font-variant-ligatures:normal;font-variant-position:normal;font-variant-caps:normal;font-variant-numeric:normal;font-variant-alternates:normal;font-feature-settings:normal;text-indent:0;text-align:start;text-decoration-line:none;text-decoration-style:solid;text-decoration-color:#000;text-transform:none;text-orientation:mixed;shape-padding:0;isolation:auto;mix-blend-mode:normal" d="m -4767.2877,-633.66289 a 0.50003259,0.50006735 0 0 0 0.1008,-0.1533 c 0.3617,-0.81879 0.8105,-1.596 1.3383,-2.31897 a 0.50009413,0.5001289 0 1 0 -0.8079,-0.58968 c -0.57,0.78082 -1.054,1.6211 -1.4446,2.50537 a 0.50003259,0.50006735 0 0 0 0.8134,0.55658 z" color="#000" font-family="sans-serif" font-weight="400" overflow="visible"/></g></svg>